<?xml version="1.0" encoding="utf-8"?>
<!-- Generator: Adobe Illustrator 19.1.0, SVG Export Plug-In . SVG Version: 6.00 Build 0)  -->
<svg version="1.1" id="Layer_1" xmlns="http://www.w3.org/2000/svg" xmlns:xlink="http://www.w3.org/1999/xlink" x="0px" y="0px"
	 viewBox="0 0 1024 1024" style="enable-background:new 0 0 1024 1024;" xml:space="preserve">
<style type="text/css">
	.st0{fill:#FFFFFF;stroke:#FFFFFF;stroke-width:16;stroke-linecap:round;stroke-miterlimit:10;}
	.st1{fill:none;stroke:#FFFFFF;stroke-width:16;stroke-linecap:round;stroke-miterlimit:10;}
	.st2{fill:#FFFFFF;stroke:#FFFFFF;stroke-miterlimit:10;}
</style>
<line class="st0" x1="512" y1="896.1" x2="512" y2="389"/>
<path class="st1" d="M1012.6,822.3L521.3,953.9c-6.1,1.6-12.6,1.6-18.7,0L38.1,829.4c-15.8-4.2-26.7-18.5-26.7-34.9v-553
	c0-23.7,22.5-41,45.4-34.9l445.9,119.5c6.1,1.6,12.6,1.6,18.7,0l453.4-121.5c10.4-2.8,10.3-17.5,0-20.2l-436-115.6"/>
<path class="st2" d="M423.2,442.9v330.4c0,23.7-22.5,40.9-45.3,34.8l-251-67.2c-15.7-4.2-26.7-18.5-26.7-34.8V375.6
	c0-23.7,22.5-40.9,45.3-34.8l251,67.3C412.2,412.3,423.2,426.6,423.2,442.9z"/>
<ellipse class="st0" cx="776.1" cy="574.9" rx="99.5" ry="194.1"/>
</svg>
