<?xml version="1.0" encoding="utf-8"?>
<!-- Generator: Adobe Illustrator 19.1.0, SVG Export Plug-In . SVG Version: 6.00 Build 0)  -->
<svg version="1.1" id="Layer_1" xmlns="http://www.w3.org/2000/svg" xmlns:xlink="http://www.w3.org/1999/xlink" x="0px" y="0px"
	 viewBox="0 0 1024 1024" style="enable-background:new 0 0 1024 1024;" xml:space="preserve">
<style type="text/css">
	.st0{fill:none;}
	.st1{fill:none;stroke:#FFFFFF;stroke-width:40;stroke-miterlimit:10;}
	.st2{fill:#FFFFFF;stroke:#FFFFFF;stroke-width:6;stroke-miterlimit:10;}
	.st3{fill:#FFFFFF;}
	.st4{font-family:'Neou-Thin';}
	.st5{font-size:222.4186px;}
</style>
<circle class="st0" cx="512" cy="512" r="499.5"/>
<circle class="st1" cx="512" cy="512" r="439.9"/>
<g>
	<path class="st2" d="M372.4,270.5c26.5,26.5,24.7,71.4-4.1,100.2c-28.8,28.8-73.7,30.6-100.2,4.1L372.4,270.5z"/>
	<line class="st2" x1="268.1" y1="374.8" x2="205.7" y2="312.4"/>
	<line class="st2" x1="302.9" y1="340" x2="240.5" y2="277.6"/>
	<line class="st2" x1="336.6" y1="306.3" x2="274.2" y2="243.9"/>
	<line class="st2" x1="372.4" y1="270.5" x2="310" y2="208.1"/>
	<line class="st2" x1="368.3" y1="370.7" x2="512.1" y2="514.5"/>
	<path class="st2" d="M690.7,761.6c-3.8-3.8-6.8-8-9.1-12.6L690.7,761.6z"/>
	<path class="st2" d="M759.2,693l-12.6-9.1C751.2,686.2,755.4,689.2,759.2,693z"/>
	<path class="st2" d="M759.2,693c18.9,18.9,18.9,49.6,0,68.5c-18.9,18.9-49.6,18.9-68.5,0l-9.1-12.6L512.1,514.5l234.6,169.5
		L759.2,693z"/>
</g>
<g>
	<line class="st2" x1="644.7" y1="376" x2="500.9" y2="519.8"/>
	<path class="st2" d="M253.8,698.4c3.8-3.8,8-6.8,12.6-9.1L253.8,698.4z"/>
	<path class="st2" d="M322.3,766.9l9.1-12.6C329.1,758.9,326.1,763.1,322.3,766.9z"/>
	<path class="st2" d="M322.3,766.9c-18.9,18.9-49.6,18.9-68.5,0c-18.9-18.9-18.9-49.6,0-68.5l12.6-9.1l234.6-169.5L331.4,754.4
		L322.3,766.9z"/>
	
		<ellipse transform="matrix(0.7071 0.7071 -0.7071 0.7071 430.2751 -404.7233)" class="st2" cx="703.7" cy="317" rx="56.6" ry="83.5"/>
</g>
<rect x="139.1" y="439.5" class="st0" width="195.7" height="190.9"/>
<text transform="matrix(1 0 0 1 146.3792 598.4912)" class="st3 st4 st5">Q</text>
<rect x="677.1" y="439.5" class="st0" width="195.7" height="190.9"/>
<text transform="matrix(1 0 0 1 685.1172 598.4912)" class="st3 st4 st5">C</text>
</svg>
